<svg width="1544" height="1261" viewBox="0 0 1544 1261" fill="none" xmlns="http://www.w3.org/2000/svg">
<path d="M536.554 311.185C554.953 299.04 578.873 296.848 598.171 305.539L1469.71 698.061C1505.16 714.028 1509.14 757.75 1477.38 782.383L1018.92 1138C999.514 1153.05 972.24 1156.02 951.155 1145.38L74.7499 703.101C39.4247 685.274 38.6196 639.884 73.2235 617.041L536.554 311.185Z" fill="#364143"/>
<path d="M536.554 175.185C554.953 163.04 578.873 160.848 598.171 169.539L1469.71 562.061C1505.16 578.028 1509.14 621.75 1477.38 646.383L1018.92 1002C999.514 1017.05 972.24 1020.02 951.155 1009.38L74.7499 567.101C39.4247 549.274 38.6196 503.884 73.2235 481.041L536.554 175.185Z" fill="#F9FAFD"/>
</svg>
