<svg width="59" height="59" viewBox="0 0 59 59" fill="none" xmlns="http://www.w3.org/2000/svg">
<g clip-path="url(#clip0_176_32)">
<path d="M11.7345 13.184C11.336 11.6969 12.6969 10.3361 14.184 10.7346L35.5005 16.4463C36.9877 16.8448 37.4858 18.7037 36.3971 19.7924L20.7923 35.3972C19.7037 36.4858 17.8447 35.9877 17.4463 34.5006L11.7345 13.184Z" fill="#FF79A9"/>
<path d="M48.2657 44.8162C48.6642 46.3033 47.3034 47.6642 45.8163 47.2657L24.4997 41.5539C23.0126 41.1555 22.5145 39.2965 23.6031 38.2079L39.2079 22.6031C40.2966 21.5144 42.1555 22.0125 42.554 23.4996L48.2657 44.8162Z" fill="#FF79A9"/>
<path d="M45.8162 10.7345C47.3033 10.336 48.6642 11.6969 48.2657 13.184L42.5539 34.5005C42.1555 35.9877 40.2965 36.4858 39.2079 35.3971L23.6031 19.7923C22.5144 18.7037 23.0125 16.8447 24.4996 16.4463L45.8162 10.7345Z" fill="#FF79A9"/>
<path d="M14.184 47.2657C12.6969 47.6642 11.3361 46.3034 11.7346 44.8163L17.4463 23.4997C17.8448 22.0126 19.7037 21.5145 20.7924 22.6031L36.3972 38.2079C37.4858 39.2966 36.9877 41.1555 35.5006 41.554L14.184 47.2657Z" fill="#FF79A9"/>
<rect x="22.0001" y="24.0001" width="15" height="11" fill="#FF79A9"/>
<path d="M6.40067 29.8662C5.734 29.4812 5.734 28.519 6.40066 28.1341L25.5126 17.0998C26.1792 16.7149 27.0126 17.1961 27.0126 17.9659L27.0126 40.0344C27.0126 40.8042 26.1792 41.2853 25.5126 40.9004L6.40067 29.8662Z" fill="#A8DADC" stroke="white" stroke-width="2"/>
<path d="M53.5995 28.134C54.2662 28.5189 54.2662 29.4812 53.5995 29.8661L34.4876 40.9004C33.8209 41.2853 32.9876 40.8041 32.9876 40.0343L32.9876 17.9658C32.9876 17.196 33.8209 16.7149 34.4876 17.0998L53.5995 28.134Z" fill="#A8DADC" stroke="white" stroke-width="2"/>
<path d="M28.268 4.90064C29.0378 3.5673 30.9623 3.5673 31.7321 4.90063L42.7663 24.0125C43.5361 25.3459 42.5739 27.0125 41.0343 27.0125H18.9658C17.4262 27.0125 16.4639 25.3459 17.2337 24.0125L28.268 4.90064Z" fill="#A8DADC"/>
<path d="M31.7321 53.0995C30.9623 54.4328 29.0378 54.4328 28.268 53.0995L17.2338 33.9876C16.464 32.6543 17.4262 30.9876 18.9658 30.9876H41.0344C42.574 30.9876 43.5362 32.6542 42.7664 33.9876L31.7321 53.0995Z" fill="#A8DADC"/>
<rect x="20.8076" y="31.1214" width="15" height="11" transform="rotate(-45 20.8076 31.1214)" fill="#A8DADC"/>
</g>
<defs>
<clipPath id="clip0_176_32">
<rect width="59" height="59" fill="white"/>
</clipPath>
</defs>
</svg>
